<?xml version="1.0" standalone="no"?>
<!DOCTYPE svg PUBLIC "-//W3C//DTD SVG 20010904//EN"
 "http://www.w3.org/TR/2001/REC-SVG-20010904/DTD/svg10.dtd">
<svg version="1.0" xmlns="http://www.w3.org/2000/svg"
 width="1500.000000pt" height="1461.000000pt" viewBox="0 0 1500.000000 1461.000000"
 preserveAspectRatio="xMidYMid meet">
<metadata>
Created by potrace 1.16, written by Peter Selinger 2001-2019
</metadata>
<g transform="translate(0.000000,1461.000000) scale(0.100000,-0.100000)"
fill="#000000" stroke="none">
<path d="M7135 14599 c-221 -13 -392 -29 -595 -55 -926 -117 -1846 -429 -2687
-910 -50 -29 -120 -71 -156 -93 -35 -23 -66 -41 -69 -41 -3 0 -20 23 -38 52
-104 160 -288 360 -460 499 -405 328 -1017 530 -1312 434 -295 -96 -346 -479
-143 -1075 108 -318 235 -600 429 -954 42 -76 76 -142 76 -146 0 -4 -10 -15
-21 -26 -12 -10 -81 -86 -153 -169 -548 -626 -976 -1322 -1286 -2091 -53 -132
-53 -132 -94 -144 -195 -58 -394 -242 -490 -452 -84 -183 -136 -407 -136 -582
0 -226 98 -489 218 -586 22 -18 39 -37 37 -44 -9 -24 -35 -311 -46 -506 -18
-316 -7 -834 26 -1145 41 -402 101 -737 199 -1110 398 -1523 1283 -2881 2521
-3866 507 -403 1035 -721 1633 -983 1098 -481 2325 -680 3547 -576 1109 94
2199 447 3125 1013 63 39 139 84 167 101 29 17 53 36 53 41 -1 6 -13 25 -29
44 l-28 34 -104 -65 c-834 -522 -1712 -848 -2729 -1014 -146 -23 -639 -15
-880 15 -345 43 -647 108 -938 202 -1310 423 -2329 1373 -2724 2539 -56 167
-134 487 -122 500 3 2 13 -1 22 -7 47 -33 287 -175 362 -215 47 -25 119 -64
160 -86 89 -47 255 -123 435 -199 365 -154 731 -264 1120 -338 77 -15 141 -28
142 -29 2 -1 14 -47 28 -102 30 -118 112 -291 184 -385 98 -129 255 -260 396
-331 133 -67 346 -118 495 -118 93 0 241 24 340 56 421 132 740 529 767 955
l6 87 -49 7 c-308 43 -652 115 -739 155 -241 109 -368 338 -311 560 31 121 75
194 195 330 22 25 41 48 41 51 0 12 -241 32 -310 25 -38 -3 -70 -4 -70 -2 0 9
213 129 261 147 87 33 166 4 235 -86 l27 -36 -50 -52 c-93 -96 -195 -221 -219
-269 -35 -68 -54 -152 -54 -232 0 -93 44 -187 126 -268 107 -107 245 -153 664
-223 230 -38 220 -35 257 -83 37 -48 53 -100 83 -261 25 -139 64 -225 134
-299 28 -30 77 -67 108 -83 70 -35 100 -38 39 -4 -72 42 -114 80 -148 137 -43
71 -62 147 -74 297 -6 68 -19 150 -29 182 -12 40 -14 59 -6 59 6 0 76 -7 156
-15 395 -39 911 -43 1290 -10 964 85 1799 369 2505 853 665 454 1225 1113
1606 1890 354 720 468 1418 345 2107 -65 364 -233 796 -463 1191 -59 101 -59
102 -61 190 -4 118 -26 336 -53 509 -48 313 -182 935 -201 935 -5 0 -7 -4 -4
-8 12 -21 37 -362 43 -592 5 -234 -9 -625 -23 -639 -3 -3 -10 2 -16 13 -15 27
-135 165 -255 293 -372 398 -1020 896 -1478 1136 -58 31 -74 45 -95 83 -99
187 -593 573 -1091 852 -646 362 -1332 595 -2009 682 -199 26 -649 38 -840 22
-168 -14 -380 -43 -380 -52 0 -14 155 -186 314 -348 441 -449 897 -779 1386
-1002 174 -80 332 -133 607 -205 123 -32 221 -60 219 -62 -9 -10 -344 31 -436
53 -169 40 -452 130 -630 201 -394 156 -699 342 -899 547 -46 47 -86 86 -89
86 -6 0 6 -375 14 -417 5 -27 11 -33 33 -34 14 0 35 -5 46 -10 14 -6 8 -7 -22
-3 -40 5 -43 4 -43 -18 0 -12 9 -59 20 -104 97 -406 324 -664 689 -783 254
-83 697 -98 1191 -41 96 11 240 28 320 37 209 24 686 25 788 1 91 -21 266 -90
440 -174 762 -364 1192 -842 1321 -1469 45 -220 52 -471 17 -618 -86 -359
-394 -751 -920 -1171 -78 -62 -200 -156 -273 -209 -114 -84 -194 -137 -448
-302 -77 -50 -278 -171 -395 -238 -58 -33 -132 -75 -165 -94 -162 -93 -645
-344 -795 -413 -215 -98 -896 -440 -1035 -520 -309 -178 -413 -261 -511 -411
-35 -52 -94 -131 -131 -174 -72 -85 -352 -385 -358 -385 -3 0 -24 19 -47 43
-60 59 -121 87 -191 87 -72 0 -130 -29 -277 -134 -58 -42 -107 -76 -110 -76
-3 0 -13 37 -23 83 -90 405 -312 700 -628 833 -347 147 -707 165 -1454 74
-353 -44 -543 -60 -684 -60 -111 0 -258 14 -269 24 -2 2 21 54 52 115 250 507
713 910 1481 1291 387 191 664 306 1480 611 1247 467 1723 676 2230 977 854
509 1386 1133 1610 1890 32 110 85 321 85 341 0 5 -28 14 -62 20 -175 30 -381
24 -798 -25 -465 -54 -519 -58 -815 -58 -235 -1 -310 2 -397 17 -423 71 -683
240 -856 557 -55 101 -89 191 -126 338 l-32 123 -114 -81 c-63 -45 -137 -93
-165 -107 -99 -51 -210 -28 -301 63 l-43 42 -128 -132 c-180 -183 -272 -292
-361 -425 -85 -126 -144 -181 -322 -296 -114 -74 -253 -155 -265 -155 -5 0 5
15 22 33 17 17 67 105 113 194 53 105 96 174 121 199 36 35 40 37 57 21 24
-22 86 -47 115 -47 14 0 37 10 52 22 l28 22 -7 168 c-11 278 -37 409 -99 489
-27 35 -44 46 -102 64 -86 28 -125 69 -156 164 -24 72 -43 101 -69 101 -27 0
-47 -30 -81 -125 -49 -135 -95 -171 -161 -124 -46 33 -149 38 -222 10 -79 -29
-161 -87 -231 -162 -132 -144 -145 -257 -59 -550 19 -67 39 -144 45 -172 5
-27 14 -56 21 -64 19 -24 96 -58 218 -98 128 -42 173 -70 194 -120 22 -51 59
-71 108 -58 33 9 38 9 27 -2 -33 -32 -947 -481 -957 -470 -3 3 8 20 25 38 85
91 153 206 153 261 0 41 -23 62 -193 176 -132 89 -220 170 -211 195 6 15 4 16
-14 6 -16 -8 -28 -9 -41 -1 -32 17 -84 11 -137 -15 -43 -21 -56 -36 -104 -117
-30 -51 -62 -94 -71 -96 -8 -1 -21 9 -29 23 -31 58 -92 36 -131 -47 -12 -27
-26 -48 -30 -48 -18 0 -71 -55 -84 -87 -8 -20 -15 -56 -15 -82 -1 -48 -17 -69
-66 -85 -17 -5 -67 19 -123 61 -2 1 2 9 9 18 18 22 -3 18 -30 -5 -13 -11 -42
-25 -64 -31 -23 -6 -57 -14 -76 -20 -71 -18 -89 -13 -146 46 -34 36 -76 66
-119 86 -36 17 -72 41 -79 53 -8 11 -16 53 -19 92 -11 137 -107 306 -191 334
-28 9 -50 6 -141 -20 -71 -20 -131 -30 -174 -30 -80 0 -113 15 -58 25 58 11
53 24 -10 24 -49 0 -60 3 -73 22 -8 13 -23 32 -32 43 -18 21 -18 21 -33 2 -14
-18 -15 -18 -35 5 -87 99 -55 247 70 331 24 16 24 17 4 17 -23 1 -84 -41 -122
-81 -13 -14 -31 -47 -41 -74 -14 -36 -25 -50 -44 -55 -32 -9 -41 -1 -23 20 7
9 30 44 50 79 l36 63 -32 47 c-46 67 -122 139 -163 153 -19 7 -35 17 -35 21 0
11 2 10 41 -9 36 -19 130 -24 186 -10 29 8 32 6 38 -21 7 -33 54 -82 105 -108
37 -19 138 -25 177 -11 20 8 21 6 16 -51 -10 -105 36 -184 132 -228 52 -25
137 -32 165 -14 12 8 10 10 -11 10 -50 0 -131 32 -169 66 -112 101 -89 245 56
345 33 23 54 29 93 29 27 0 61 4 74 9 l24 9 -5 -66 c-7 -109 39 -184 141 -227
41 -17 167 -21 167 -5 0 6 -17 10 -37 10 -120 2 -222 96 -223 205 0 50 37 131
78 169 29 27 32 27 68 16 45 -15 149 -8 188 12 26 14 23 14 -56 14 -94 -1
-145 19 -191 73 -70 84 -59 193 30 292 19 21 31 39 26 39 -20 0 -86 -58 -119
-104 -30 -43 -176 -5 -234 60 -29 34 -50 89 -50 134 0 59 86 183 141 202 8 3
12 8 9 11 -8 9 -81 -27 -118 -58 -93 -78 -105 -221 -26 -313 37 -44 40 -52 22
-52 -30 -1 -112 -96 -123 -142 -6 -23 -12 -28 -39 -28 -104 2 -203 82 -221
180 -13 70 43 175 118 224 37 25 20 33 -22 11 -85 -43 -151 -140 -151 -220 0
-50 30 -117 67 -151 27 -25 27 -26 8 -36 -11 -6 -39 -30 -62 -54 -45 -46 -79
-134 -70 -180 3 -19 -1 -26 -20 -30 -36 -9 -107 3 -151 25 -135 69 -149 226
-29 349 61 63 16 49 -56 -17 -87 -79 -99 -222 -27 -305 17 -18 30 -36 30 -39
0 -3 -13 -8 -28 -12 -16 -3 -43 -20 -60 -38 -32 -33 -94 -158 -106 -215 -7
-29 -11 -32 -44 -31 -99 2 -178 71 -196 169 -9 50 16 127 59 183 42 54 35 60
-18 16 -107 -89 -117 -268 -19 -351 17 -14 37 -28 44 -30 9 -3 2 -16 -20 -39
-55 -56 -75 -104 -74 -181 0 -74 0 -74 -95 -93 -41 -8 -129 18 -164 48 -80 71
-90 193 -23 292 33 49 24 57 -17 14 -72 -77 -93 -193 -51 -276 32 -61 111
-117 164 -115 15 0 28 0 28 -2 0 -1 -22 -25 -48 -52 -56 -58 -78 -119 -69
-193 l6 -49 -47 -13 c-63 -18 -134 -15 -179 8 -52 27 -100 93 -109 148 -7 50
14 130 47 176 29 40 23 46 -12 13 -107 -100 -102 -281 10 -358 41 -29 41 -29
22 -50 -62 -68 -82 -183 -46 -260 17 -35 17 -40 3 -65 -23 -38 -93 -89 -141
-102 -131 -35 -256 76 -257 230 -1 51 -13 40 -24 -21 -14 -77 33 -189 97 -229
18 -11 51 -25 75 -32 37 -10 42 -14 37 -32 -14 -44 -17 -125 -5 -161 7 -22 25
-56 41 -76 16 -20 29 -41 29 -47 0 -15 -61 -63 -109 -84 -65 -29 -148 -21
-198 20 -62 49 -86 103 -86 190 0 84 -12 84 -29 0 -26 -125 46 -243 168 -276
23 -6 25 -12 28 -71 3 -77 28 -132 82 -179 l36 -33 -33 -34 c-44 -46 -108 -70
-148 -56 -17 6 -46 8 -66 5 -28 -4 -42 0 -69 20 -53 41 -81 108 -79 194 1 83
-9 87 -27 12 -22 -90 4 -182 69 -243 l31 -29 -29 -18 c-37 -22 -92 -91 -124
-154 -79 -159 -128 -463 -129 -805 0 -136 4 -207 17 -268 23 -114 13 -114 -13
0 -53 227 -72 398 -72 663 0 523 126 1028 394 1571 392 797 961 1456 1656
1921 994 664 2291 944 3735 807 l170 -16 25 -31 c41 -52 82 -87 132 -113 57
-29 79 -30 101 -6 33 37 17 63 -60 97 -45 19 -58 39 -20 30 12 -3 89 -16 171
-30 82 -14 224 -41 315 -61 177 -38 240 -64 324 -133 105 -87 149 -168 155
-289 9 -172 -46 -279 -251 -489 l-71 -72 30 -38 c86 -107 167 -124 289 -61
114 59 250 145 247 158 -8 35 -23 277 -20 324 1 31 2 56 2 56 -1 0 -40 -20
-85 -45 -46 -24 -89 -45 -95 -45 -8 0 -7 13 3 43 8 23 17 79 20 124 5 68 2 94
-17 154 -41 126 -146 240 -287 309 -90 44 -517 135 -775 166 -54 6 -57 8 -72
44 -8 21 -22 83 -31 137 -8 54 -22 123 -31 153 -36 126 -122 239 -216 283 -26
12 -47 28 -48 35 0 8 19 50 42 95 156 299 439 512 773 583 96 20 322 23 410 5
242 -50 441 -157 606 -328 187 -193 292 -429 307 -688 l7 -110 100 -7 c470
-36 1016 -168 1525 -370 205 -81 639 -294 824 -403 71 -42 130 -74 132 -72 5
5 -71 295 -104 392 -98 291 -264 596 -459 843 -42 53 -137 158 -212 232 -419
417 -959 718 -1666 927 -148 44 -147 44 -385 97 -381 86 -765 139 -1280 178
-329 25 -1377 12 -1585 -19 -70 -10 -32 6 121 52 1088 327 2200 398 3314 210
576 -97 1121 -259 1660 -492 1847 -802 3289 -2364 3944 -4271 189 -551 304
-1096 362 -1712 30 -326 29 -986 -3 -1257 l-6 -53 32 0 c18 0 40 -4 50 -10 16
-8 19 -3 25 48 18 168 28 507 23 792 -10 518 -56 920 -163 1415 -233 1082
-720 2106 -1418 2985 -511 643 -1154 1218 -1853 1653 -961 600 -2066 972
-3178 1072 -395 35 -744 43 -1050 24z m-4853 -183 c158 -41 248 -76 399 -151
659 -330 1109 -924 1314 -1735 25 -97 79 -399 87 -480 l3 -35 -115 -33 c-381
-108 -719 -243 -1022 -408 -76 -41 -142 -74 -147 -74 -20 0 -195 235 -338 454
-514 790 -862 1621 -863 2062 0 192 57 326 167 391 112 65 289 69 515 9z
m4053 -1722 c80 -77 115 -181 134 -404 5 -58 12 -113 16 -122 6 -15 2 -16 -27
-12 -18 3 -89 11 -158 17 l-124 12 -9 40 c-12 55 -1 318 16 386 13 48 25 90
43 147 5 18 53 -10 109 -64z m2375 -535 c542 -50 1241 -301 1967 -707 166 -93
474 -284 468 -290 -2 -2 -70 33 -152 79 -157 87 -607 317 -758 387 -676 311
-1251 491 -1652 518 -54 4 -105 10 -113 15 -21 12 102 11 240 -2z m793 -444
c306 -63 586 -164 972 -350 154 -75 487 -264 500 -284 2 -5 -111 46 -253 114
-530 253 -905 405 -1235 500 -180 53 -175 59 16 20z m28 -201 c353 -66 763
-221 1138 -431 64 -35 121 -69 126 -75 13 -14 18 -16 -226 90 -219 95 -463
196 -594 244 -126 47 -459 156 -499 163 -20 4 -39 11 -42 16 -7 12 0 12 97 -7z
m76 -248 c181 -91 486 -195 878 -301 199 -54 199 -54 193 -61 -3 -2 -54 3
-114 11 -360 54 -734 182 -969 333 -92 59 -87 67 12 18z m-6176 -101 l76 1 -9
-34 c-18 -66 6 -145 62 -199 l32 -31 -30 -16 c-17 -9 -44 -32 -60 -52 -25 -30
-39 -37 -76 -41 -100 -12 -200 47 -230 134 -9 25 -16 54 -16 63 0 44 33 121
71 163 l40 47 32 -17 c22 -13 55 -18 108 -18z m6235 -116 c11 -18 180 -94 284
-129 114 -37 329 -91 460 -115 147 -26 152 -36 15 -31 -207 9 -398 54 -565
132 -88 42 -219 129 -220 147 0 11 18 8 26 -4z m-6695 -36 c20 -10 57 -17 95
-17 l61 0 11 -56 c15 -69 49 -117 109 -152 l46 -26 -51 -22 c-29 -12 -69 -42
-91 -65 -49 -53 -95 -64 -174 -41 -160 46 -203 224 -85 352 22 24 42 44 43 44
1 0 17 -8 36 -17z m5596 -154 c194 -134 592 -246 1128 -318 88 -12 174 -26
190 -31 27 -7 25 -8 -20 -9 -66 -1 -307 16 -420 30 -450 55 -830 206 -983 390
-43 52 -35 63 12 16 26 -26 68 -61 93 -78z m-182 -53 c147 -149 384 -262 700
-335 201 -46 380 -70 750 -98 l100 -7 -60 -7 c-223 -25 -640 12 -870 77 -270
76 -431 160 -573 298 -73 70 -120 126 -107 126 4 0 31 -24 60 -54z m41 -316
c202 -132 484 -202 929 -231 158 -10 458 -6 585 8 79 8 56 -5 -36 -21 -226
-40 -641 -45 -864 -12 -335 50 -574 156 -736 328 -75 79 -87 114 -13 39 34
-35 95 -85 135 -111z m-6128 -55 c1 -1 -9 -33 -23 -70 -14 -37 -25 -82 -25
-100 0 -48 21 -60 103 -57 l69 2 -6 -34 c-15 -82 46 -190 128 -227 50 -23 134
-24 183 -4 19 8 39 15 44 15 9 0 -31 -71 -76 -138 -21 -30 -25 -49 -25 -104 0
-66 -1 -69 -45 -118 -75 -84 -71 -120 18 -167 79 -43 90 -72 97 -264 5 -152 6
-156 34 -193 32 -43 90 -82 171 -117 46 -20 55 -27 50 -44 -16 -52 -17 -113
-2 -141 18 -34 50 -70 69 -76 9 -3 5 -14 -13 -35 -23 -27 -37 -54 -52 -104
-12 -38 -128 -30 -174 13 -56 51 -66 119 -29 192 27 54 15 56 -27 4 -31 -39
-43 -95 -33 -152 7 -35 57 -98 86 -108 13 -4 13 -7 1 -21 -10 -13 -30 -17 -75
-17 -33 0 -86 -7 -116 -15 -30 -8 -58 -15 -62 -15 -13 0 -9 49 7 87 20 47 19
50 -6 27 -29 -26 -49 -67 -49 -101 0 -33 -7 -43 -40 -64 -14 -9 -49 -38 -79
-65 -41 -37 -52 -43 -47 -26 15 45 -14 21 -43 -36 -16 -32 -37 -64 -46 -72
-26 -22 -90 -120 -108 -168 -17 -43 -22 -107 -11 -137 17 -42 113 -58 182 -29
35 14 38 14 53 -5 62 -76 172 -79 238 -7 28 30 25 32 -15 11 -56 -29 -147 -14
-184 30 -11 13 -10 19 7 38 11 12 29 37 39 55 36 62 92 51 126 -25 11 -24 17
-51 14 -59 -8 -20 14 -17 79 11 32 14 60 24 62 21 3 -2 -26 -36 -63 -76 -155
-162 -305 -377 -375 -535 -36 -83 -40 -85 -177 -85 -68 0 -76 2 -103 29 -16
16 -29 38 -29 49 0 11 -9 31 -20 45 -24 30 -102 50 -177 45 l-47 -3 -64 -160
c-35 -88 -89 -245 -121 -350 -64 -208 -136 -506 -128 -528 7 -18 103 -37 187
-37 165 0 384 98 546 244 29 25 55 46 58 46 3 0 6 -14 6 -30 0 -45 35 -194 71
-301 189 -565 658 -999 1441 -1335 178 -76 266 -99 435 -115 138 -12 318 -3
613 31 434 51 514 60 660 71 90 7 230 9 335 6 663 -21 1027 -265 1189 -798 40
-133 57 -259 63 -466 3 -106 3 -193 0 -193 -3 0 -38 34 -78 76 -95 98 -177
164 -319 259 -139 93 -444 244 -635 314 -77 29 -156 58 -175 66 -63 23 -423
124 -485 134 -33 6 -112 15 -175 21 -63 5 -133 12 -155 15 -71 9 -10 -12 160
-55 345 -88 485 -137 720 -250 402 -194 829 -499 1190 -849 190 -185 425 -439
425 -460 0 -17 -324 -55 -565 -66 -234 -11 -596 17 -905 71 -867 151 -1873
617 -2546 1180 -134 112 -271 254 -303 314 -21 41 -39 53 -174 130 -292 165
-685 442 -963 680 -234 200 -492 459 -660 664 l-49 59 -8 -89 c-16 -162 -11
-753 6 -942 9 -94 19 -184 22 -200 5 -22 4 -24 -4 -10 -21 33 -125 502 -175
793 -61 354 -94 728 -81 925 37 552 309 1139 799 1724 58 70 106 130 106 135
0 5 -11 28 -25 52 -32 59 -55 158 -55 244 0 91 18 121 85 143 40 14 54 25 72
57 32 59 44 152 36 296 l-6 126 37 55 c21 33 36 67 36 85 0 45 -27 113 -60
155 -17 20 -30 39 -30 41 0 2 20 12 44 21 25 9 50 24 58 33 11 15 11 16 -7 9
-11 -4 -43 -13 -71 -19 -47 -10 -55 -8 -90 12 -22 13 -57 29 -78 35 -83 24
-112 151 -58 257 l27 54 75 6 c67 4 120 20 120 35 0 3 -20 2 -44 -1 -137 -21
-257 71 -255 196 1 56 15 96 56 153 21 30 42 47 60 51 15 3 50 17 78 31 30 14
51 20 53 14 8 -22 54 -70 88 -90 l34 -22 -26 -31 c-116 -138 -68 -324 96 -374
64 -19 137 -9 196 28 42 26 37 37 -8 18 -48 -20 -145 -17 -192 7 -22 10 -53
36 -70 57 -51 63 -48 193 5 261 18 23 28 26 80 26 49 0 129 20 129 32 0 2 -35
4 -77 3 -90 0 -145 23 -186 77 -60 80 -55 171 15 271 18 26 22 27 76 21 31 -4
58 -8 60 -9z m466 -190 c14 -23 36 -49 50 -58 l24 -16 -24 -76 c-13 -42 -24
-82 -24 -90 0 -23 -40 -38 -100 -39 -109 -1 -196 57 -221 146 -10 38 -9 44 7
53 36 21 88 71 125 121 29 39 48 55 81 65 l43 14 7 -39 c4 -21 19 -57 32 -81z
m-1614 -366 c0 -5 -33 -64 -73 -131 -207 -346 -398 -787 -477 -1104 -10 -39
-19 -53 -40 -62 -35 -16 -135 -118 -200 -204 -64 -85 -84 -88 -146 -24 -153
160 -203 499 -119 815 86 327 248 540 489 646 51 22 186 60 241 68 57 8 325 5
325 -4z m676 -112 c17 -23 44 -49 60 -57 16 -8 30 -15 32 -16 2 -1 -12 -22
-31 -47 -39 -51 -62 -131 -53 -181 6 -33 5 -34 -41 -50 -203 -69 -357 105
-264 297 l23 47 53 -6 c57 -7 143 15 165 42 18 20 21 18 56 -29z m-284 -362
c16 -13 48 -30 71 -37 23 -6 43 -12 45 -14 2 -1 -7 -19 -20 -40 -18 -30 -23
-55 -24 -113 -1 -67 -5 -80 -45 -150 -24 -42 -48 -80 -54 -84 -15 -11 -81 1
-126 23 -69 36 -117 140 -104 226 6 39 8 42 49 53 50 12 123 73 151 125 11 20
21 36 23 36 2 0 17 -11 34 -25z m316 -16 c7 -12 12 -22 10 -23 -2 -1 -20 -9
-41 -19 -44 -20 -143 -110 -152 -138 -4 -11 -11 -19 -17 -19 -14 0 -4 107 13
144 9 18 20 26 38 26 15 0 47 11 71 24 57 30 63 30 78 5z m11891 -187 c3 -440
-84 -882 -262 -1337 -85 -215 -283 -591 -357 -676 -12 -13 2 19 30 71 338 629
543 1347 567 1990 8 203 21 175 22 -48z m-8457 121 c94 -153 159 -320 177
-457 18 -130 7 -183 -86 -416 -205 -510 -339 -897 -428 -1234 -32 -122 -65
-312 -65 -374 0 -145 -80 -204 -197 -144 -138 71 -281 271 -362 508 -58 170
-75 298 -74 574 0 284 17 457 70 710 33 157 66 332 78 412 6 39 -1 34 270 183
92 51 568 294 576 295 3 0 22 -26 41 -57z m-3909 -388 c20 -8 55 -15 77 -15
22 0 40 -3 40 -7 0 -5 -9 -37 -21 -73 -14 -47 -19 -88 -18 -153 1 -48 0 -89
-2 -91 -16 -14 -74 -37 -108 -42 -89 -14 -185 56 -215 157 -23 76 -21 89 12
89 60 1 170 78 188 133 7 21 3 20 47 2z m1837 -399 c31 -53 118 -146 150 -158
l25 -10 -35 -26 c-19 -15 -76 -60 -127 -99 -52 -40 -96 -73 -98 -73 -3 0 -5
11 -5 23 0 53 -135 149 -232 165 -54 9 -63 32 -14 32 20 0 53 7 73 15 44 19
40 19 47 -9 8 -32 52 -83 87 -101 42 -22 127 -19 168 6 42 25 37 31 -17 18
-77 -17 -156 18 -182 81 -15 37 -9 120 12 152 13 20 24 24 70 24 54 0 56 -1
78 -40z m-1828 -98 c-5 -76 6 -112 51 -170 44 -58 11 -45 -60 23 -77 74 -94
75 -143 2 -19 -29 -40 -52 -46 -53 -6 0 -29 31 -51 69 l-40 69 43 31 c24 16
53 45 65 64 l22 33 82 0 82 -1 -5 -67z m1291 -855 c3 -27 17 -151 33 -278 23
-193 27 -272 28 -490 1 -228 -1 -266 -17 -313 -23 -64 -54 -88 -114 -85 -84 3
-205 98 -294 231 -55 83 -58 99 -39 251 20 159 89 330 202 503 73 109 177 240
187 234 5 -3 11 -27 14 -53z m9871 -423 c56 -27 86 -74 86 -133 0 -47 -16 -97
-32 -97 -17 0 -7 -29 12 -35 31 -10 68 -61 75 -104 7 -44 -17 -114 -50 -141
-17 -14 -17 -13 -9 10 5 14 9 51 9 82 0 49 -4 62 -26 83 -33 33 -87 46 -139
33 -22 -6 -40 -13 -40 -17 -1 -3 -2 -29 -3 -56 -2 -34 -10 -61 -26 -84 -22
-30 -23 -34 -7 -43 81 -45 96 -162 30 -233 -31 -34 -41 -27 -20 14 46 88 -14
191 -112 191 -57 0 -79 -15 -86 -58 -3 -22 -18 -55 -33 -73 -22 -26 -25 -33
-13 -37 54 -18 108 -120 94 -179 -14 -58 -65 -136 -79 -121 -3 2 4 22 15 43
56 110 -12 225 -133 225 -60 0 -77 -8 -77 -34 0 -24 -34 -85 -58 -104 -16 -12
-16 -14 1 -23 74 -42 99 -139 57 -223 -24 -47 -80 -98 -80 -72 0 8 5 18 10 21
18 11 40 76 40 119 0 23 -9 55 -20 74 -25 40 -91 73 -135 66 -72 -12 -72 -12
-73 -49 -2 -41 -15 -70 -49 -107 l-25 -26 26 -17 c40 -27 66 -77 66 -128 0
-59 -14 -94 -53 -134 -44 -47 -64 -43 -31 6 75 115 16 242 -114 243 -69 0 -89
-8 -101 -43 -6 -16 -20 -44 -32 -60 -18 -26 -19 -33 -8 -40 8 -5 17 -9 21 -9
14 0 51 -63 60 -102 13 -58 -13 -129 -60 -168 -43 -35 -52 -32 -22 8 98 132
-22 296 -177 242 -23 -8 -33 -21 -42 -49 -6 -21 -22 -49 -35 -64 l-23 -25 29
-22 c89 -65 92 -194 8 -275 -40 -38 -46 -27 -15 26 40 70 31 153 -22 201 -10
9 -39 22 -64 29 -37 10 -53 10 -88 -2 -37 -12 -45 -20 -57 -53 -7 -22 -22 -51
-32 -66 l-20 -26 33 -21 c41 -27 65 -78 65 -138 0 -53 -10 -77 -53 -122 -42
-45 -51 -41 -25 8 64 124 5 239 -124 239 -65 0 -75 -6 -113 -66 l-34 -53 40
-39 c43 -44 53 -89 34 -170 -6 -24 -71 -102 -86 -102 -4 0 6 26 22 57 25 47
29 64 24 98 -9 51 -28 81 -68 105 -54 33 -187 23 -187 -14 0 -8 -16 -31 -35
-52 l-36 -38 30 -23 c16 -13 37 -43 46 -68 15 -37 15 -51 6 -92 -12 -48 -51
-102 -89 -122 -33 -18 -33 -14 4 40 73 109 29 220 -96 244 -50 9 -86 -7 -93
-42 -3 -15 -20 -43 -38 -61 l-32 -32 28 -22 c78 -61 72 -201 -12 -265 -43 -33
-49 -26 -16 20 33 47 42 121 19 165 -29 56 -71 77 -153 77 -40 -1 -73 1 -73 3
0 2 21 12 46 23 32 14 61 20 96 17 50 -3 51 -2 71 36 26 50 27 118 1 153 -41
55 -70 68 -145 67 -69 0 -70 0 -47 18 36 27 102 33 153 13 52 -19 102 -75 111
-121 l6 -32 35 15 c25 10 51 12 83 8 l47 -6 22 52 c36 82 16 150 -57 192 -32
19 -102 25 -141 12 -38 -12 -22 12 21 31 111 50 232 -15 245 -130 l5 -44 36
21 c23 14 53 21 91 22 54 0 57 2 73 35 24 46 23 117 -1 156 -29 47 -82 68
-158 61 -70 -7 -76 4 -17 29 45 19 118 18 161 -3 43 -20 84 -80 86 -127 1 -20
3 -36 3 -36 1 0 23 9 49 21 31 14 59 19 80 16 29 -5 34 -2 49 29 26 55 21 126
-11 165 -48 56 -120 73 -188 45 -44 -19 -45 -5 -3 25 49 35 142 38 188 7 42
-29 80 -83 80 -114 l0 -23 46 24 c31 17 63 25 95 25 47 0 47 0 64 45 29 75 7
145 -58 186 -25 16 -44 19 -92 16 -33 -2 -69 -8 -80 -12 -18 -8 -19 -7 -5 10
20 25 88 55 125 55 70 0 153 -65 170 -132 l7 -27 40 21 c24 13 58 21 84 20 53
0 70 19 80 90 16 113 -91 194 -205 155 -53 -19 -51 -1 5 30 54 31 115 30 171
-2 44 -26 83 -85 83 -125 0 -24 4 -25 37 -3 17 11 47 17 86 18 58 1 61 2 79
35 38 71 13 166 -53 202 -27 16 -47 18 -101 14 -38 -3 -68 -1 -68 3 0 14 82
46 120 46 58 0 114 -31 145 -80 27 -44 28 -44 56 -30 15 8 55 15 87 15 l59 0
18 40 c25 55 23 121 -5 160 -35 49 -73 63 -152 58 -37 -3 -68 -4 -68 -2 0 2
18 13 40 24 46 23 107 26 153 6 40 -16 86 -69 94 -107 5 -28 5 -28 37 -12 17
9 50 16 73 16 37 0 43 4 55 31 17 41 17 116 -1 150 -31 57 -112 84 -188 61
-26 -8 -49 -15 -50 -15 -1 0 0 7 3 15 9 22 86 55 130 55 62 0 125 -37 149 -87
22 -46 30 -51 55 -28 10 9 41 18 69 22 44 5 54 10 62 30 26 69 -5 153 -66 179
-44 18 -77 18 -122 -1 -46 -20 -51 -14 -16 19 63 59 166 54 223 -10 l29 -34
37 25 c31 21 74 32 87 23 12 -9 37 30 42 65 17 115 -88 189 -200 143 -40 -17
-45 -9 -12 21 48 44 111 53 171 23z m914 -496 c81 -33 134 -114 136 -204 0
-30 -2 -67 -7 -82 -7 -26 -7 -26 30 -16 34 9 78 7 113 -6 10 -4 24 10 44 40
32 50 107 99 169 109 62 11 125 -12 179 -66 50 -51 68 -94 68 -172 0 -40 -21
-117 -32 -117 -2 0 -3 35 -3 78 0 66 -4 84 -27 122 -39 67 -81 94 -156 98 -52
4 -71 0 -115 -22 -29 -14 -64 -37 -77 -51 l-24 -25 44 -37 c56 -48 80 -101 80
-179 0 -59 1 -62 28 -69 53 -13 111 -55 138 -101 36 -61 43 -161 16 -219 l-19
-40 1 80 c1 111 -34 175 -121 219 -68 34 -183 6 -247 -62 l-29 -31 31 -35 c17
-20 36 -53 43 -74 11 -39 9 -144 -5 -173 -6 -13 2 -19 36 -27 125 -32 203
-168 167 -292 l-13 -45 -6 65 c-11 105 -48 168 -122 206 -38 20 -114 20 -160
1 -38 -16 -103 -70 -118 -97 -6 -12 -3 -34 11 -71 32 -84 11 -188 -50 -243
-23 -21 -27 -36 -10 -36 23 0 79 -54 100 -97 26 -54 29 -140 5 -193 -18 -42
-82 -118 -91 -109 -3 4 5 23 19 44 125 184 -27 385 -246 325 l-37 -11 0 -67
c1 -81 -16 -124 -70 -180 -23 -23 -41 -44 -41 -47 0 -3 11 -5 25 -5 32 0 93
-31 122 -62 12 -13 32 -45 44 -72 36 -83 18 -171 -52 -251 -34 -39 -61 -48
-35 -12 94 128 65 291 -60 343 -40 17 -123 18 -173 3 l-37 -11 1 -71 c0 -61
-4 -79 -27 -119 -16 -25 -40 -56 -55 -69 -19 -14 -24 -23 -15 -26 28 -10 74
-57 95 -97 29 -55 28 -145 -1 -202 -21 -41 -93 -114 -113 -114 -6 0 6 19 25
42 37 42 67 120 65 167 -3 125 -135 213 -276 185 -29 -6 -29 -7 -29 -72 0 -51
-5 -78 -23 -111 -22 -43 -69 -95 -91 -103 -8 -2 0 -23 21 -56 60 -97 50 -206
-28 -285 -34 -36 -93 -75 -93 -62 0 3 15 21 34 39 98 98 101 240 6 320 -40 33
-128 59 -173 51 -34 -7 -34 -8 -40 -65 -3 -31 -13 -70 -23 -86 -26 -42 -96
-114 -111 -114 -20 0 -15 -18 8 -30 29 -16 69 -107 69 -158 0 -80 -50 -164
-125 -208 -24 -14 -52 -24 -62 -21 -15 3 -14 6 7 14 31 14 83 68 103 108 68
135 -14 276 -175 300 l-46 7 -22 -49 c-24 -54 -61 -98 -102 -119 -35 -18 -36
-5 -2 27 57 53 87 155 64 223 -29 88 -107 140 -213 141 -55 0 -70 -3 -78 -17
-14 -25 -71 -77 -91 -84 -15 -4 -11 -12 21 -46 46 -47 66 -109 58 -176 l-5
-47 71 0 c54 -1 82 -6 112 -22 138 -73 167 -236 62 -350 -41 -45 -109 -87
-129 -81 -6 2 8 16 31 31 82 54 127 164 102 248 -26 85 -119 149 -218 149 -42
0 -53 -4 -58 -19 -8 -26 -91 -101 -112 -101 -12 0 -8 8 17 33 42 41 80 121 80
170 0 45 -23 103 -53 135 -51 55 -150 83 -222 63 -54 -15 -56 -5 -4 19 49 22
129 26 178 9 30 -11 35 -9 68 22 97 92 97 239 0 313 -41 32 -108 56 -154 56
-20 0 -32 4 -28 10 12 20 127 11 182 -14 89 -42 147 -150 124 -232 -15 -53
-14 -55 15 -44 65 25 164 7 225 -42 34 -27 69 -92 75 -139 l7 -49 58 0 c32 0
77 -7 99 -16 41 -17 41 -16 69 10 61 58 93 164 71 232 -30 94 -104 144 -213
144 -62 0 -65 -1 -95 -39 -17 -21 -54 -50 -83 -65 -56 -28 -89 -25 -42 4 74
45 123 123 123 195 0 111 -81 191 -215 211 -45 6 -47 8 -25 16 59 23 181 -12
230 -65 52 -54 76 -142 57 -210 -7 -26 -6 -27 20 -20 56 16 137 8 183 -18 39
-21 101 -88 112 -120 3 -9 13 -9 42 1 47 15 119 9 168 -14 l37 -18 25 29 c50
55 69 108 64 178 -3 53 -9 71 -34 101 -45 57 -96 79 -178 79 l-69 0 -12 -42
c-17 -57 -50 -100 -103 -134 -68 -43 -84 -35 -28 13 89 76 113 192 59 276 -38
58 -124 102 -202 103 l-56 1 35 15 c24 10 53 14 93 10 106 -9 192 -84 204
-177 l6 -42 36 8 c20 4 62 8 93 9 48 0 59 4 76 25 34 44 51 87 57 142 8 69
-22 130 -83 173 -35 24 -55 30 -112 33 -38 2 -83 -1 -100 -6 -54 -19 -31 6 25
27 99 37 193 20 258 -47 35 -35 67 -104 67 -143 0 -60 -24 -121 -65 -167 l-44
-49 37 -24 c20 -13 48 -41 61 -61 l24 -37 31 17 c21 11 56 17 108 17 91 0 108
12 138 92 25 67 25 106 1 160 -37 81 -156 135 -249 114 -23 -5 -42 -6 -42 -2
0 17 60 34 125 37 l70 2 30 58 c80 157 -7 305 -180 306 -34 0 -71 -5 -83 -11
-27 -14 -45 -14 -36 0 13 22 97 51 145 51 101 -1 176 -47 213 -129 36 -81 14
-195 -48 -252 -29 -28 -33 -41 -11 -41 20 0 105 -78 105 -96 0 -20 18 -17 47
6 14 11 41 22 62 26 100 18 172 180 127 288 -34 81 -139 134 -238 121 -32 -5
-48 -4 -45 3 11 16 90 34 137 30 36 -2 48 1 61 17 54 66 65 181 24 251 -48 82
-182 121 -277 81 -49 -21 -49 -3 0 22 108 55 203 48 278 -21 25 -23 47 -51 50
-64 7 -29 8 -29 44 -3 15 12 52 27 82 33 47 11 54 16 65 47 49 142 -43 289
-181 289 -50 0 -138 -29 -167 -56 -30 -27 -33 -10 -4 24 66 79 197 105 291 57
l49 -25 40 39 c22 21 50 44 63 50 17 9 22 20 22 49 0 150 -118 252 -251 218
-52 -14 -134 -74 -151 -112 -6 -13 -15 -21 -19 -18 -11 6 22 71 56 112 14 17
49 42 77 56 90 45 176 30 249 -43 54 -53 73 -108 67 -188 l-5 -53 54 0 c30 0
70 -7 90 -15 34 -14 38 -14 46 2 34 63 140 133 202 133 15 0 17 6 12 45 -13
94 -79 173 -161 194 -77 19 -149 -11 -221 -91 -44 -50 -47 -51 -40 -23 9 40
50 99 91 130 32 24 34 30 33 83 -1 90 -26 140 -92 185 -81 55 -185 42 -271
-34 -55 -48 -59 -39 -11 23 64 85 182 120 273 82z m-4092 -3495 c60 -15 114
-66 114 -107 0 -36 -49 -83 -107 -103 -51 -17 -157 -17 -216 0 -106 31 -141
113 -72 168 19 15 52 33 72 40 50 15 152 16 209 2z"/>
<path d="M3040 13755 c0 -4 42 -48 93 -99 349 -344 618 -850 776 -1466 25 -99
26 -52 1 87 -67 372 -233 761 -453 1063 -92 125 -417 449 -417 415z"/>
<path d="M3126 13198 c231 -219 391 -496 546 -943 71 -207 82 -207 33 0 -83
351 -238 648 -451 860 -65 65 -191 165 -208 165 -4 0 32 -37 80 -82z"/>
<path d="M2870 12890 c0 -5 17 -18 38 -29 61 -31 158 -107 231 -180 159 -159
275 -354 362 -606 21 -62 28 -73 28 -49 2 84 -77 311 -153 439 -88 148 -240
298 -371 368 -83 44 -135 66 -135 57z"/>
<path d="M2900 12573 c0 -5 23 -23 50 -42 141 -95 300 -318 370 -521 29 -83
44 -100 35 -40 -13 90 -36 167 -74 245 -67 141 -176 258 -312 334 -58 32 -69
36 -69 24z"/>
<path d="M1955 7690 c-13 -20 -51 -92 -85 -160 -57 -113 -61 -125 -48 -148 21
-40 53 -55 95 -47 29 5 53 22 104 74 38 40 79 73 100 80 20 6 42 23 52 40 21
36 22 102 2 140 -19 37 -82 63 -147 60 -46 -2 -52 -6 -73 -39z"/>
<path d="M1808 7598 c-286 -452 -476 -992 -543 -1538 -19 -156 -30 -487 -18
-560 8 -49 10 -36 16 108 27 594 182 1197 457 1777 37 77 88 178 114 223 26
46 45 86 43 88 -2 3 -34 -42 -69 -98z"/>
<path d="M5390 4653 c-84 -4 -332 -35 -355 -43 -19 -7 243 -3 310 4 56 7 459
-13 570 -28 225 -30 423 -86 569 -161 96 -49 152 -90 230 -170 43 -44 47 -46
30 -17 -25 45 -149 162 -216 204 -253 160 -666 237 -1138 211z"/>
<path d="M5085 4500 c3 -5 41 -10 83 -10 107 0 361 -24 522 -50 417 -66 737
-197 913 -373 32 -32 61 -56 64 -54 9 9 -150 168 -212 212 -188 133 -473 228
-810 270 -139 17 -570 21 -560 5z"/>
<path d="M5076 4361 c5 -4 74 -15 154 -25 457 -55 824 -142 1057 -251 114 -54
175 -94 237 -159 39 -41 45 -45 33 -21 -18 36 -114 129 -177 172 -198 135
-573 240 -965 272 -193 15 -349 21 -339 12z"/>
<path d="M4460 4092 c8 -5 67 -19 130 -31 329 -64 609 -155 738 -241 17 -12
32 -17 32 -11 0 18 -141 112 -235 156 -100 47 -234 87 -370 110 -107 19 -317
31 -295 17z"/>
<path d="M4325 3955 c17 -8 36 -14 44 -15 23 0 397 -108 561 -162 175 -57 363
-130 472 -183 65 -32 70 -33 43 -10 -120 102 -435 237 -720 309 -93 23 -393
77 -418 75 -7 0 2 -7 18 -14z"/>
<path d="M4193 3863 c18 -28 423 -235 597 -305 270 -108 570 -195 735 -212
l50 -6 -65 21 c-198 62 -269 86 -405 134 -189 67 -469 180 -706 285 -101 45
-190 84 -198 87 -9 4 -12 2 -8 -4z"/>
<path d="M4006 3791 c27 -26 275 -165 464 -260 387 -196 716 -318 1029 -381
111 -22 169 -23 86 -1 -340 90 -885 310 -1428 578 -143 71 -171 83 -151 64z"/>
<path d="M3860 3696 c22 -22 344 -217 496 -302 779 -431 1506 -675 2054 -689
140 -3 152 -3 80 5 -185 20 -330 42 -440 66 -433 96 -986 307 -1581 605 -239
119 -445 229 -547 291 -65 40 -86 48 -62 24z"/>
<path d="M806 9729 c-223 -33 -433 -149 -505 -280 l-24 -44 54 56 c116 121
312 209 565 253 48 9 89 18 92 21 8 8 -115 4 -182 -6z"/>
<path d="M762 9530 c-138 -33 -286 -118 -359 -208 -59 -73 -54 -85 11 -24 88
84 225 160 380 212 36 13 66 24 66 26 0 6 -63 2 -98 -6z"/>
<path d="M4940 8996 c0 -4 30 -53 66 -108 77 -116 147 -260 164 -338 20 -87
25 -90 28 -17 5 111 -35 220 -119 327 -44 56 -139 149 -139 136z"/>
<path d="M4820 8957 c0 -5 16 -29 36 -55 56 -73 131 -232 148 -314 9 -46 17
-156 20 -294 3 -121 11 -245 18 -275 12 -53 13 -49 21 121 4 96 6 238 4 315
-4 129 -7 146 -35 214 -17 40 -46 97 -65 125 -37 55 -146 176 -147 163z"/>
<path d="M4635 8885 c3 -22 8 -129 11 -237 8 -231 2 -282 -61 -503 -24 -84
-48 -186 -54 -226 -10 -80 -4 -219 10 -219 5 0 9 30 9 68 0 88 18 170 78 355
28 84 55 183 62 221 23 123 -1 405 -44 536 l-15 45 4 -40z"/>
<path d="M4710 8904 c0 -3 20 -61 45 -129 106 -294 121 -394 89 -585 -18 -99
-21 -289 -6 -350 7 -28 10 -14 15 75 3 61 18 169 32 240 37 179 32 280 -18
426 -43 129 -157 362 -157 323z"/>
<path d="M2570 7265 c0 -5 7 -32 15 -60 27 -87 45 -225 51 -380 3 -82 8 -157
11 -165 12 -32 21 39 22 175 1 151 -20 280 -58 365 -23 51 -41 80 -41 65z"/>
<path d="M2430 7118 c0 -2 9 -29 20 -60 23 -65 43 -177 61 -335 7 -62 16 -110
21 -107 14 9 9 229 -8 300 -16 72 -64 187 -83 198 -6 4 -11 6 -11 4z"/>
<path d="M13415 5875 c-88 -43 -90 -45 -60 -100 34 -65 35 -152 1 -218 -20
-41 -21 -47 -7 -47 23 0 121 -49 121 -61 0 -22 20 -6 44 36 31 53 76 89 136
110 53 19 60 28 60 80 0 175 -145 273 -295 200z"/>
<path d="M13207 5455 c-51 -18 -51 -18 -48 -74 3 -57 -27 -136 -65 -172 -13
-12 -24 -25 -24 -29 0 -3 15 -14 34 -23 26 -12 73 -61 92 -95 1 -1 25 10 53
25 43 22 64 26 121 25 69 -1 69 -1 91 34 33 53 38 157 11 211 -49 96 -159 137
-265 98z"/>
<path d="M9153 3131 c-47 -22 -82 -66 -65 -83 7 -7 13 -4 21 10 6 11 25 25 42
31 50 17 159 14 199 -7 44 -22 52 -58 18 -84 -29 -22 -7 -23 35 -1 120 62 43
153 -130 153 -55 0 -90 -6 -120 -19z"/>
<path d="M5601 11907 c-46 -15 -101 -68 -101 -99 0 -102 220 -160 355 -94 107
53 108 128 4 180 -46 22 -65 26 -138 25 -48 -1 -101 -6 -120 -12z m25 -38
c-17 -13 -26 -29 -24 -42 11 -77 245 -84 287 -10 9 17 10 17 16 1 27 -69 -145
-130 -267 -94 -126 36 -143 96 -43 149 43 23 62 21 31 -4z"/>
<path d="M8010 11540 c-17 -10 131 -159 240 -242 140 -106 489 -308 531 -308
7 0 -41 33 -107 73 -174 105 -373 251 -565 413 -59 50 -90 70 -99 64z"/>
<path d="M12319 8436 c-31 -18 -44 -45 -60 -126 -17 -87 -6 -498 20 -715 30
-259 44 -355 50 -355 12 1 151 189 203 275 78 128 95 164 135 284 29 90 36
125 40 228 l6 121 -46 69 c-109 164 -267 264 -348 219z m175 -387 c9 -63 24
-146 35 -185 10 -38 22 -80 26 -94 l7 -25 -21 23 c-25 28 -59 117 -77 202 -14
69 -19 261 -6 274 7 8 10 -8 36 -195z m-118 -229 c8 -58 22 -129 31 -158 19
-67 11 -78 -15 -20 -57 126 -77 248 -70 429 8 182 22 184 30 4 4 -82 15 -197
24 -255z"/>
<path d="M10173 8180 c-39 -16 -54 -53 -64 -162 -12 -127 -23 -194 -55 -328
-70 -286 -213 -707 -411 -1205 -42 -104 -84 -214 -94 -242 -57 -166 -15 -383
122 -635 71 -130 33 -132 324 15 139 71 327 169 417 219 l165 91 11 86 c7 48
27 157 47 242 77 345 100 569 92 900 -7 289 -36 435 -132 645 -72 157 -202
310 -307 359 -56 26 -79 29 -115 15z m289 -1218 c-7 -52 -32 -164 -57 -250
-62 -218 -69 -274 -61 -487 3 -99 8 -202 11 -230 8 -83 -42 121 -54 222 -24
196 -10 307 68 546 45 138 78 291 82 382 1 19 5 7 12 -30 7 -43 7 -87 -1 -153z
m-275 -11 c18 -52 14 -91 -21 -226 -35 -135 -42 -232 -23 -322 20 -90 80 -284
118 -375 47 -113 12 -76 -51 55 -134 278 -152 392 -101 644 21 103 31 182 31
245 1 92 1 93 16 58 9 -19 22 -55 31 -79z m-217 -391 c6 -175 13 -272 24 -308
21 -76 75 -185 130 -266 26 -37 45 -70 43 -72 -7 -7 -103 104 -144 165 -45 68
-89 178 -98 250 -4 30 -4 171 1 315 7 246 8 258 22 216 9 -30 16 -128 22 -300z
m-160 -184 c0 -77 79 -249 197 -428 25 -38 43 -71 41 -74 -3 -2 -41 33 -85 79
-83 89 -142 189 -162 277 -14 58 -14 170 -1 170 6 0 10 -11 10 -24z"/>
<path d="M14694 6552 c-5 -4 -46 -52 -89 -106 -47 -58 -103 -116 -137 -140
-46 -33 -59 -49 -68 -81 -32 -123 -136 -421 -194 -555 -77 -178 -186 -390
-287 -557 -39 -63 -68 -117 -66 -119 12 -12 198 -15 283 -4 234 29 407 118
552 284 61 70 147 239 186 362 101 327 64 680 -90 863 -30 36 -76 63 -90 53z
m-63 -951 c-23 -42 -115 -132 -174 -169 -69 -43 -177 -86 -247 -97 -25 -3 -53
-9 -62 -11 -10 -3 -18 -2 -18 3 0 4 37 21 83 37 164 58 329 156 390 233 23 28
42 31 28 4z m56 -190 c-66 -100 -186 -184 -327 -230 -90 -30 -234 -53 -305
-49 l-60 3 118 23 c258 52 418 122 527 232 36 37 67 65 69 63 2 -1 -8 -20 -22
-42z"/>
<path d="M14395 4985 c-16 -7 -43 -18 -58 -24 -15 -6 -29 -16 -32 -23 -2 -7
-33 -89 -69 -183 -228 -601 -537 -1173 -913 -1688 -99 -136 -328 -424 -414
-520 l-52 -57 24 -45 c13 -25 26 -45 29 -44 10 2 169 187 287 334 518 647 905
1340 1185 2118 27 77 48 140 46 142 -2 1 -16 -3 -33 -10z"/>
<path d="M12105 3318 c-260 -152 -706 -334 -1079 -438 l-113 -32 13 -92 c53
-380 170 -758 339 -1091 295 -584 737 -976 1315 -1165 193 -64 312 -84 443
-77 121 6 160 18 223 66 96 73 134 175 134 361 0 134 -19 255 -65 425 -127
463 -448 1120 -821 1680 -124 186 -285 399 -304 402 -8 1 -46 -16 -85 -39z
m-435 -455 c65 -194 196 -384 351 -509 38 -31 67 -59 65 -62 -8 -8 -118 58
-181 109 -134 109 -236 290 -263 472 -5 31 -6 57 -2 57 4 0 17 -30 30 -67z
m-180 -60 c0 -22 60 -165 107 -257 116 -230 279 -411 481 -536 29 -18 51 -34
49 -37 -9 -8 -123 49 -201 101 -115 77 -233 201 -305 318 -73 121 -144 316
-155 423 -6 58 -5 59 9 30 8 -16 14 -36 15 -42z m-191 -128 c129 -419 337
-789 563 -1001 88 -82 94 -96 18 -43 -76 53 -198 172 -261 254 -164 215 -298
526 -353 824 -28 147 -20 139 33 -34z m-214 -2 c25 -110 116 -389 174 -530
154 -374 355 -687 597 -928 52 -52 91 -95 86 -95 -15 0 -153 123 -247 221
-298 309 -509 737 -610 1236 -23 117 -30 173 -21 173 2 0 12 -34 21 -77z"/>
</g>
</svg>
